<?xml version="1.0" encoding="utf-8"?>
<!-- Generator: Adobe Illustrator 22.0.1, SVG Export Plug-In . SVG Version: 6.00 Build 0)  -->
<svg version="1.1" id="Capa_1" xmlns="http://www.w3.org/2000/svg" xmlns:xlink="http://www.w3.org/1999/xlink" x="0px" y="0px"
	 viewBox="0 0 399 397" style="enable-background:new 0 0 399 397;" xml:space="preserve">
<style type="text/css">
	.st0{fill:none;stroke:#772424;stroke-miterlimit:10;}
</style>
<g>
	<path class="st0" d="M917.8,332h-19.2v-19.2c0-10.6-8.6-19.2-19.2-19.2H687.6c-10.6,0-19.2,8.6-19.2,19.2V543
		c0,10.6,8.6,19.2,19.2,19.2h19.2v19.2c0,10.6,8.6,19.2,19.2,19.2h191.8c10.6,0,19.2-8.6,19.2-19.2V351.2
		C937,340.6,928.4,332,917.8,332z M687.6,543V312.8h191.8V543H687.6z M917.8,581.4H726v-19.2h153.5c10.6,0,19.2-8.6,19.2-19.2V351.2
		h19.2V581.4z"/>
	<path class="st0" d="M850.7,351.2h-95.9c-5.3,0-9.6,4.3-9.6,9.6c0,5.3,4.3,9.6,9.6,9.6h95.9c5.3,0,9.6-4.3,9.6-9.6
		C860.3,355.5,856,351.2,850.7,351.2z"/>
	<path class="st0" d="M850.7,408.7H716.4c-5.3,0-9.6,4.3-9.6,9.6c0,5.3,4.3,9.6,9.6,9.6h134.3c5.3,0,9.6-4.3,9.6-9.6
		C860.3,413,856,408.7,850.7,408.7z"/>
	<path class="st0" d="M850.7,447.1H716.4c-5.3,0-9.6,4.3-9.6,9.6c0,5.3,4.3,9.6,9.6,9.6h134.3c5.3,0,9.6-4.3,9.6-9.6
		C860.3,451.4,856,447.1,850.7,447.1z"/>
	<path class="st0" d="M850.7,485.5H716.4c-5.3,0-9.6,4.3-9.6,9.6c0,5.3,4.3,9.6,9.6,9.6h134.3c5.3,0,9.6-4.3,9.6-9.6
		C860.3,489.8,856,485.5,850.7,485.5z"/>
</g>
<path class="st0" d="M277.4,80.8h-175c-16.1,0-29.2,13.1-29.2,29.2v9.7h233.4v-9.7C306.6,93.8,293.5,80.8,277.4,80.8z M226.5,61.3
	l4.3,30.7H149l4.3-30.7H226.5 M228.8,41.9H151c-8,0-15.5,6.5-16.6,14.5L128.7,97c-1.1,7.9,4.5,14.4,12.6,14.4h97.3
	c8,0,13.7-6.5,12.6-14.4l-5.7-40.7C244.3,48.4,236.8,41.9,228.8,41.9L228.8,41.9z M282.3,139.1H97.5c-10.7,0-18.7,8.7-17.7,19.4
	l15.9,175.2c1,10.7,10.5,19.4,21.2,19.4h145.9c10.7,0,20.2-8.7,21.2-19.4L300,158.5C300.9,147.8,293,139.1,282.3,139.1z M151,314.2
	h-29.2L112.1,178H151V314.2z M209.3,314.2h-38.9V178h38.9V314.2z M258,314.2h-29.2V178h38.9L258,314.2z"/>
</svg>
