<?xml version="1.0" encoding="utf-8"?>
<!-- Generator: Adobe Illustrator 22.0.1, SVG Export Plug-In . SVG Version: 6.00 Build 0)  -->
<svg version="1.1" id="Capa_1" xmlns="http://www.w3.org/2000/svg" xmlns:xlink="http://www.w3.org/1999/xlink" x="0px" y="0px"
	 viewBox="0 0 325.1 339" style="enable-background:new 0 0 325.1 339;" xml:space="preserve">
<style type="text/css">
	.st0{fill:none;stroke:#7B2524;stroke-miterlimit:10;}
</style>
<g>
	<path class="st0" d="M281.6,249.9l-61.2-61.2c-9.1,14.2-21.2,26.2-35.4,35.4l61.2,61.2c9.8,9.8,25.6,9.8,35.4,0
		C291.4,275.5,291.4,259.7,281.6,249.9z"/>
	<path class="st0" d="M222.2,125.8c0-55.3-44.8-100.1-100.1-100.1c-55.3,0-100.1,44.8-100.1,100.1c0,55.3,44.8,100.1,100.1,100.1
		C177.4,225.9,222.2,181.1,222.2,125.8z M122.1,200.9c-41.4,0-75.1-33.7-75.1-75c0-41.4,33.7-75.1,75.1-75.1
		c41.4,0,75.1,33.7,75.1,75.1C197.2,167.2,163.5,200.9,122.1,200.9z"/>
</g>
</svg>
