<?xml version="1.0" encoding="utf-8"?>
<!-- Generator: Adobe Illustrator 22.0.1, SVG Export Plug-In . SVG Version: 6.00 Build 0)  -->
<svg version="1.1" id="Capa_1" xmlns="http://www.w3.org/2000/svg" xmlns:xlink="http://www.w3.org/1999/xlink" x="0px" y="0px"
	 viewBox="0 0 399 397" style="enable-background:new 0 0 399 397;" xml:space="preserve">
<style type="text/css">
	.st0{fill:none;stroke:#7B2524;stroke-miterlimit:10;}
</style>
<path class="st0" d="M184.3,139.4l-1.1-1c5.5-19.7,0.5-41.7-15-57.2c-15.4-15.4-37.2-20.4-56.8-15.1l33.2,33.2l-8.7,32.5l-32.5,8.7
	l-33.2-33.2c-5.3,19.6-0.3,41.4,15.1,56.8c16.1,16.1,39.4,20.9,59.7,14.3l0.2,0.2l136.5,136.5c5.4,5.4,12.5,8.1,19.5,8.1
	c7.1,0,14.1-2.7,19.6-8.1c10.8-10.8,10.8-28.3,0-39.1L184.3,139.4z M303.7,310.4c-5.8,0-10.6-4.7-10.6-10.6
	c0-5.8,4.7-10.6,10.6-10.6c5.9,0,10.6,4.7,10.6,10.6C314.3,305.7,309.6,310.4,303.7,310.4z"/>
</svg>
