<?xml version="1.0" encoding="utf-8"?>
<!-- Generator: Adobe Illustrator 22.0.1, SVG Export Plug-In . SVG Version: 6.00 Build 0)  -->
<svg version="1.1" id="Capa_1" xmlns="http://www.w3.org/2000/svg" xmlns:xlink="http://www.w3.org/1999/xlink" x="0px" y="0px"
	 viewBox="0 0 399 397" style="enable-background:new 0 0 399 397;" xml:space="preserve">
<style type="text/css">
	.st0{fill:none;stroke:#7B2524;stroke-miterlimit:10;}
</style>
<path class="st0" d="M305.4,164.8l-7.6-18.5c0,0,17.8-40.9,16.2-42.5l-23.5-23.5c-1.6-1.6-41.7,17.1-41.7,17.1l-18.5-7.6
	c0,0-16.3-41.5-18.6-41.5h-33.2c-2.3,0-17.4,41.6-17.4,41.6l-18.5,7.6c0,0-40.9-17.8-42.5-16.2l-23.5,23.5
	c-1.6,1.6,17.1,41.7,17.1,41.7L86,165.1c0,0-41.5,16.3-41.5,18.5v33.2c0,2.3,41.6,17.5,41.6,17.5l7.6,18.5c0,0-17.8,40.9-16.2,42.5
	l23.5,23.5c1.6,1.6,41.7-17.1,41.7-17.1l18.5,7.7c0,0,16.3,41.5,18.6,41.5H213c2.3,0,17.4-41.6,17.4-41.6l18.5-7.7
	c0,0,40.9,17.8,42.4,16.2l23.5-23.5c1.6-1.6-17.1-41.7-17.1-41.7l7.6-18.5c0,0,41.5-16.4,41.5-18.6v-33.2
	C347,179.9,305.4,164.8,305.4,164.8z M244.2,199.5c0,26.7-21.8,48.5-48.5,48.5c-26.7,0-48.5-21.8-48.5-48.5
	c0-26.7,21.8-48.4,48.5-48.4C222.5,151.1,244.2,172.8,244.2,199.5z"/>
</svg>
