<?xml version="1.0" encoding="utf-8"?>
<!-- Generator: Adobe Illustrator 22.0.1, SVG Export Plug-In . SVG Version: 6.00 Build 0)  -->
<svg version="1.1" id="Capa_1" xmlns="http://www.w3.org/2000/svg" xmlns:xlink="http://www.w3.org/1999/xlink" x="0px" y="0px"
	 viewBox="0 0 399 397" style="enable-background:new 0 0 399 397;" xml:space="preserve">
<style type="text/css">
	.st0{fill:none;stroke:#772424;stroke-miterlimit:10;}
</style>
<g>
	<path class="st0" d="M310.8,85h-19.2V65.8c0-10.6-8.6-19.2-19.2-19.2H80.6c-10.6,0-19.2,8.6-19.2,19.2V296
		c0,10.6,8.6,19.2,19.2,19.2h19.2v19.2c0,10.6,8.6,19.2,19.2,19.2h191.8c10.6,0,19.2-8.6,19.2-19.2V104.2
		C330,93.6,321.4,85,310.8,85z M80.6,296V65.8h191.8V296H80.6z M310.8,334.4H119v-19.2h153.5c10.6,0,19.2-8.6,19.2-19.2V104.2h19.2
		V334.4z"/>
	<path class="st0" d="M243.7,104.2h-95.9c-5.3,0-9.6,4.3-9.6,9.6c0,5.3,4.3,9.6,9.6,9.6h95.9c5.3,0,9.6-4.3,9.6-9.6
		C253.3,108.5,249,104.2,243.7,104.2z"/>
	<path class="st0" d="M243.7,161.7H109.4c-5.3,0-9.6,4.3-9.6,9.6c0,5.3,4.3,9.6,9.6,9.6h134.3c5.3,0,9.6-4.3,9.6-9.6
		C253.3,166,249,161.7,243.7,161.7z"/>
	<path class="st0" d="M243.7,200.1H109.4c-5.3,0-9.6,4.3-9.6,9.6c0,5.3,4.3,9.6,9.6,9.6h134.3c5.3,0,9.6-4.3,9.6-9.6
		C253.3,204.4,249,200.1,243.7,200.1z"/>
	<path class="st0" d="M243.7,238.5H109.4c-5.3,0-9.6,4.3-9.6,9.6c0,5.3,4.3,9.6,9.6,9.6h134.3c5.3,0,9.6-4.3,9.6-9.6
		C253.3,242.8,249,238.5,243.7,238.5z"/>
</g>
</svg>
