<?xml version="1.0" encoding="utf-8"?>
<!-- Generator: Adobe Illustrator 22.0.1, SVG Export Plug-In . SVG Version: 6.00 Build 0)  -->
<svg version="1.1" id="Capa_1" xmlns="http://www.w3.org/2000/svg" xmlns:xlink="http://www.w3.org/1999/xlink" x="0px" y="0px"
	 viewBox="0 0 572 486" style="enable-background:new 0 0 572 486;" xml:space="preserve">
<style type="text/css">
	.st0{fill:#4F271F;}
	.st1{fill:#CB6F32;}
	.st2{fill:#7B2524;}
	.st3{fill:none;}
</style>
<g>
	<g>
		<g>
			<g>
				<g>
					<path class="st0" d="M287.4,279.7c14.2,4.7,29.3,7.1,44.7,7.1c58.7-17.7,101.5-71.8,101.5-135.6h-63.4
						C370.2,208,336.3,257.1,287.4,279.7z"/>
					<rect x="370.2" y="41.9" class="st0" width="63.4" height="26.5"/>
				</g>
				<path class="st1" d="M174.8,152.1V68.4h37L143.1,12L74.4,68.4h37v83.7c0,78.8,64.2,142.9,143.2,142.9H318
					C239,295,174.8,230.9,174.8,152.1z"/>
				<g>
					<rect x="55.3" y="78.4" class="st2" width="45.9" height="62.8"/>
					<polygon class="st2" points="514.5,109.8 459.6,42.4 459.6,78.4 184.9,78.4 184.9,141.2 459.6,141.2 459.6,177.3 					"/>
				</g>
			</g>
			<rect x="55.3" y="12" class="st3" width="459.2" height="283"/>
		</g>
		<g>
			<rect x="107" y="323.3" class="st3" width="118.6" height="127.6"/>
		</g>
		<g>
			<path class="st1" d="M260.7,323.5h-40.5v5.4c18.5,0,18,8,18,13.1c0,5.1,0,109.1,0,109.1h28.5v-6.1c-12.5,0-17-1.6-17-16.9
				c0-15.3,0-75.3,0-75.3l76.2,98.3h12.8V323.5h-12.6v84.7L260.7,323.5z"/>
			<g>
				<rect x="220.2" y="323.5" class="st3" width="118.6" height="127.6"/>
			</g>
		</g>
		<g>
			<path class="st0" d="M450,323.5c-51.1,0-80.3,22.6-80.3,62.6c0,40,28.2,65,67.7,65c21.3,0,40.6-11.8,40.6-11.8l-3.6-8.2
				c0,0-13.7,9.6-32.1,9.6c-18.4,0-42.2-9.6-42.2-55.2c0-31.3,17.2-53.3,49.8-52.7V323.5z"/>
			<g>
				<rect x="364.6" y="323.7" class="st3" width="118.6" height="127.2"/>
			</g>
		</g>
		<g>
			<g>
				<rect x="467.4" y="323.5" class="st3" width="118.6" height="127.6"/>
			</g>
			<path class="st0" d="M499.8,323.5h53.8v127.6h-32.6c0,0,0-103.9,0-109.1c0-5.2,0.7-13.1-21.1-13.1V323.5z"/>
		</g>
		<path class="st0" d="M135.4,323.3h53.8v127.6h-32.6c0,0,0-103.9,0-109.1c0-5.2,0.7-13.1-21.1-13.1V323.3z"/>
		<g>
			<g>
				<rect x="0.9" y="323.4" class="st3" width="118.6" height="127.2"/>
			</g>
			<path class="st0" d="M75.5,323.3c-31.5,0-59.3,7.8-59.3,32c0,39.9,64.8,37.4,64.8,64c0,11.1-10.1,20.9-25.6,20.9
				c-15.5,0-31.5-9.9-36.8-26.3h-6.1l4.3,31c9.8,0,29,6.1,41.5,6.1c12.5,0,49.6-4.9,49.6-36.4c0-40.8-67.8-40.1-67.8-64.3
				c0-10.6,11.5-17.3,35.5-18.1V323.3z"/>
		</g>
	</g>
</g>
</svg>
