<?xml version="1.0" encoding="utf-8"?>
<!-- Generator: Adobe Illustrator 22.0.1, SVG Export Plug-In . SVG Version: 6.00 Build 0)  -->
<svg version="1.1" id="Capa_1" xmlns="http://www.w3.org/2000/svg" xmlns:xlink="http://www.w3.org/1999/xlink" x="0px" y="0px"
	 viewBox="0 0 1040 640" style="enable-background:new 0 0 1040 640;" xml:space="preserve">
<style type="text/css">
	.st0{fill:#033261;}
	.st1{fill:none;}
	.st2{fill:url(#SVGID_1_);}
	.st3{fill:#7A1F1D;}
	.st4{fill:#C67421;}
	.st5{fill:#502714;}
	.st6{fill:url(#SVGID_2_);}
	.st7{fill:url(#SVGID_3_);}
	.st8{fill:url(#SVGID_4_);}
	.st9{fill:url(#SVGID_5_);}
	.st10{fill:url(#SVGID_6_);}
	.st11{fill:url(#SVGID_7_);}
	.st12{fill:url(#SVGID_8_);}
</style>
<g>
	<g>
		<g>
			<path class="st0" d="M57.6,537.8l5.5-7.3c4.9,5.6,13,10.9,23.6,10.9c13.4,0,17.6-7.4,17.6-13.2c0-19.8-44.4-8.9-44.4-36.3
				c0-12.7,11-21.3,25.7-21.3c11.5,0,20.3,3.9,26.6,10.7l-5.6,7c-5.6-6.3-13.5-9.2-21.7-9.2c-9,0-15.4,5-15.4,12.2
				c0,17.3,44.4,7.4,44.4,36c0,11.2-7.4,22.6-27.6,22.6C73.3,550,63.8,544.9,57.6,537.8z"/>
			<path class="st0" d="M189.7,548.6v-37.8c0-7-3-11.5-10-11.5c-5.6,0-11.6,4.1-14.4,8.5v40.8h-8.4v-37.8c0-7-2.9-11.5-10-11.5
				c-5.5,0-11.3,4.1-14.3,8.6v40.7h-8.4V493h8.4v8.1c2.2-3.6,9.6-9.4,17.5-9.4c8.3,0,13,4.6,14.6,10.4c3-5.1,10.3-10.4,18.2-10.4
				c9.9,0,15.2,5.6,15.2,16.8v40.2H189.7z"/>
			<path class="st0" d="M245.6,548.6v-6.3c-4.5,5.1-10.7,7.7-18,7.7c-9.2,0-19-6.3-19-18.4c0-12.4,9.8-18.3,19-18.3
				c7.4,0,13.6,2.4,18,7.6v-10c0-7.5-5.8-11.7-13.7-11.7c-6.5,0-11.8,2.4-16.6,7.7l-3.9-6c5.8-6.2,12.8-9.2,21.7-9.2
				c11.5,0,21,5.3,21,18.8v38.2H245.6z M245.6,536.9v-10.5c-3.3-4.6-9-6.9-14.9-6.9c-7.9,0-13.4,5.1-13.4,12.2
				c0,7,5.5,12.1,13.4,12.1C236.6,543.8,242.3,541.5,245.6,536.9z"/>
			<path class="st0" d="M267.5,548.6V493h8.4v9c4.4-5.9,10.7-10.1,18.1-10.1v8.9c-1-0.2-2-0.3-3.4-0.3c-5.2,0-12.2,4.4-14.7,8.9
				v39.4H267.5z"/>
			<path class="st0" d="M302.9,537v-36.4h-9V493h9v-15.2h8.4V493h11v7.6h-11v34.5c0,4.1,1.8,7.1,5.5,7.1c2.4,0,4.6-1,5.7-2.3
				l2.5,6.4c-2.1,2.1-5.2,3.6-10.1,3.6C306.9,550,302.9,545.3,302.9,537z"/>
			<path class="st0" d="M356.8,548.6v-76.8h33.4c13,0,21,8.1,21,19.6c0,9.7-6.3,16.1-13.1,17.6c8,1.3,14.6,9.7,14.6,18.9
				c0,12.3-8,20.7-21.7,20.7H356.8z M401.5,492.8c0-6.9-4.5-12.4-12.9-12.4h-22.5v24.8h22.5C397.1,505.1,401.5,499.8,401.5,492.8z
				 M403,526.9c0-7-4.7-13.2-13.9-13.2h-22.9v26.5h22.9C397.8,540.1,403,535,403,526.9z"/>
			<path class="st0" d="M460.4,548.6v-7.8c-4.2,4.8-11.2,9.2-19.3,9.2c-11.3,0-17.3-5.6-17.3-17.7V493h8.4v36.6
				c0,9.8,4.8,12.7,12.1,12.7c6.6,0,12.9-3.9,16.1-8.4V493h8.4v55.6H460.4z"/>
			<path class="st0" d="M477.6,541.3l4.4-6.2c3.6,4.3,10.5,7.9,17.9,7.9c8.3,0,12.8-4,12.8-9.6c0-13.5-33.6-5.2-33.6-25.8
				c0-8.6,7.3-16,20.2-16c9.2,0,15.7,3.6,20.1,8.1l-3.9,6c-3.3-4-9.2-7-16.2-7c-7.4,0-12,3.8-12,8.8c0,12.2,33.6,4.1,33.6,25.8
				c0,9.3-7.3,16.8-21.3,16.8C490.7,550,483.1,547.2,477.6,541.3z"/>
			<path class="st0" d="M529.8,479.3c0-3.2,2.6-5.9,5.6-5.9c3.1,0,5.7,2.6,5.7,5.9s-2.6,5.8-5.7,5.8
				C532.3,485.1,529.8,482.5,529.8,479.3z M531.2,548.6V493h8.4v55.6H531.2z"/>
			<path class="st0" d="M589.8,548.6v-36.4c0-9.8-4.8-12.9-12.1-12.9c-6.6,0-12.9,4.1-16.1,8.6v40.7h-8.4V493h8.4v8.1
				c3.8-4.6,11.2-9.4,19.3-9.4c11.3,0,17.3,5.9,17.3,18v39H589.8z"/>
			<path class="st0" d="M608.5,520.8c0-16.1,11.2-29.1,26.7-29.1c16.4,0,26.1,13.1,26.1,29.8v2.2h-43.9c0.7,10.5,7.9,19.2,19.6,19.2
				c6.2,0,12.5-2.5,16.7-7l4,5.6c-5.4,5.5-12.7,8.5-21.6,8.5C620.1,550,608.5,538.2,608.5,520.8z M635.2,498.8
				c-11.6,0-17.3,10-17.8,18.5H653C652.9,509,647.5,498.8,635.2,498.8z"/>
			<path class="st0" d="M666.8,541.3l4.4-6.2c3.6,4.3,10.4,7.9,17.9,7.9c8.3,0,12.8-4,12.8-9.6c0-13.5-33.6-5.2-33.6-25.8
				c0-8.6,7.3-16,20.2-16c9.2,0,15.7,3.6,20.1,8.1l-3.9,6c-3.3-4-9.2-7-16.2-7c-7.4,0-12,3.8-12,8.8c0,12.2,33.6,4.1,33.6,25.8
				c0,9.3-7.3,16.8-21.3,16.8C679.9,550,672.3,547.2,666.8,541.3z"/>
			<path class="st0" d="M715.7,541.3l4.4-6.2c3.6,4.3,10.5,7.9,17.9,7.9c8.3,0,12.8-4,12.8-9.6c0-13.5-33.6-5.2-33.6-25.8
				c0-8.6,7.3-16,20.2-16c9.2,0,15.7,3.6,20.1,8.1l-3.9,6c-3.3-4-9.2-7-16.2-7c-7.4,0-12,3.8-12,8.8c0,12.2,33.6,4.1,33.6,25.8
				c0,9.3-7.3,16.8-21.3,16.8C728.8,550,721.2,547.2,715.7,541.3z"/>
			<path class="st0" d="M795.3,548.6v-76.8h9.3v68.3h34.8v8.5H795.3z"/>
			<path class="st0" d="M847.4,479.3c0-3.2,2.6-5.9,5.6-5.9c3.1,0,5.7,2.6,5.7,5.9s-2.6,5.8-5.7,5.8
				C850,485.1,847.4,482.5,847.4,479.3z M848.9,548.6V493h8.4v55.6H848.9z"/>
			<path class="st0" d="M907.4,548.6v-36.4c0-9.8-4.8-12.9-12.1-12.9c-6.6,0-12.9,4.1-16.1,8.6v40.7h-8.4V493h8.4v8.1
				c3.8-4.6,11.2-9.4,19.3-9.4c11.3,0,17.3,5.9,17.3,18v39H907.4z"/>
			<path class="st0" d="M966.3,548.6l-19.6-25l-9,9.1v15.9h-8.4v-76.8h8.4v50.8l28.5-29.6H977l-24,25.2l24.2,30.4H966.3z"/>
		</g>
	</g>
	<rect x="58.2" y="66.2" class="st1" width="921.8" height="484.5"/>
	<linearGradient id="SVGID_1_" gradientUnits="userSpaceOnUse" x1="484.1695" y1="232.6132" x2="650.6375" y2="232.6132">
		<stop  offset="0" style="stop-color:#96251C"/>
		<stop  offset="0.9961" style="stop-color:#7A1F1D"/>
	</linearGradient>
	<path class="st2" d="M564.2,303.2v-35.1c-1.4-1-2.8-2.1-4.1-3.2c-12.2-9.9-20-25.1-20-42.1c0-17.1,7.9-32.3,20.1-42.2
		c1.3-1.1,2.6-2.1,3.9-3V131l-80-63.4c0,0,0,169.7,0,235.9c5.1,84.1,88.4,94.3,88.4,94.3s56.5,0,78.1,0
		C568,388.4,564.2,303.2,564.2,303.2z"/>
	<g>
		<g>
			<g>
				<polygon class="st3" points="198.8,66.2 142.4,121.6 178.8,121.6 178.8,398.4 218.9,398.4 218.9,121.6 255.3,121.6 				"/>
			</g>
			<polygon class="st4" points="158.7,398.4 118.6,398.4 118.6,200.7 158.7,148.3 			"/>
			<polygon class="st5" points="98.5,398.4 58.2,398.4 58.2,275 98.5,242.2 			"/>
		</g>
		<g>
			<g>
				<linearGradient id="SVGID_2_" gradientUnits="userSpaceOnUse" x1="748.9751" y1="233.0099" x2="915.4012" y2="233.0099">
					<stop  offset="0" style="stop-color:#712F1C"/>
					<stop  offset="0.9961" style="stop-color:#502714"/>
				</linearGradient>
				<path class="st6" d="M749,304.1c5.1,84.1,79.9,94.4,79.9,94.4s64.9,0,86.5,0c-85.6-7.3-86.4-94.6-86.4-94.6V67.6h-80
					C749,67.6,749,237.9,749,304.1z"/>
				<g>
					<linearGradient id="SVGID_3_" gradientUnits="userSpaceOnUse" x1="874.9227" y1="399.479" x2="874.7927" y2="399.2537">
						<stop  offset="0" style="stop-color:#692D1A"/>
						<stop  offset="0.9961" style="stop-color:#3F1E0D"/>
					</linearGradient>
					<path class="st7" d="M874.6,399.4C874.6,399.4,874.6,399.4,874.6,399.4c0.2,0,0.4,0,0.5,0C874.9,399.4,874.8,399.4,874.6,399.4
						z"/>
					<linearGradient id="SVGID_4_" gradientUnits="userSpaceOnUse" x1="933.1669" y1="399.9833" x2="882.1307" y2="311.5859">
						<stop  offset="0" style="stop-color:#692D1A"/>
						<stop  offset="0.9961" style="stop-color:#3F1E0D"/>
					</linearGradient>
					<path class="st8" d="M917.4,295.5c-2.9,46.6-56.1,42.4-80.3,42.8c-0.4,0-0.9,0-1.3,0c9.7,26.7,30,55.1,77.8,60.1
						c52.1-5.8,59.3-27.2,63.8-32.5L917.4,295.5z"/>
				</g>
			</g>
			<g>
				<linearGradient id="SVGID_5_" gradientUnits="userSpaceOnUse" x1="378.0092" y1="176.7937" x2="378.0092" y2="67.4511">
					<stop  offset="0" style="stop-color:#BA6D1F"/>
					<stop  offset="0.9961" style="stop-color:#C67421"/>
				</linearGradient>
				<path class="st9" d="M376.2,67.9c0,0,50.6,2.4,93.2,27c-2.8,7.1-37.6,77.9-37.6,77.9s-96.9-45-92.3-11.2
					c0.3,1.9,3.3,7.4,5.6,8.7c7.4,4.3,13.5,6.6,13.5,6.6s-103.5-42.3-62.2-93C312.5,69.5,342.2,66.2,376.2,67.9z"/>
				<linearGradient id="SVGID_6_" gradientUnits="userSpaceOnUse" x1="381.9558" y1="410.206" x2="303.7166" y2="274.6917">
					<stop  offset="0" style="stop-color:#BA6D1F"/>
					<stop  offset="0.9961" style="stop-color:#C67421"/>
				</linearGradient>
				<path class="st10" d="M390.3,289.9c0,0,85.8,40.9,39.4,92.1c-5.8,6.5-50.8,25.5-102.1,8.8c-23-5.9-74.9-28.1-74.9-28.1
					l37.8-80.4l53.2,21.2C343.8,303.5,412.5,329,390.3,289.9z"/>
				<linearGradient id="SVGID_7_" gradientUnits="userSpaceOnUse" x1="315.1857" y1="318.1855" x2="414.3343" y2="146.4552">
					<stop  offset="0" style="stop-color:#CE8923"/>
					<stop  offset="0.9961" style="stop-color:#C67421"/>
				</linearGradient>
				<path class="st11" d="M300.5,80.8c0,0-27.2,24.4,0.8,58.3c12.1,13.3,44.3,32.6,57.9,38.6c4.8,2.1,48.3,16.5,72.4,32.7
					c10.6,7.2,50.9,34.4,49.3,80c-1.2,16.9-11.9,72.7-53.2,92.7c14.9-12.7,26.9-40.4-4.3-69.9c-11-11.3-51.1-35.7-88.4-52.8
					c-11-3.3-43.6-19-67.3-47.7c-5.9-10-17.4-25.1-13.6-58C255.3,145.5,262.3,102.3,300.5,80.8z"/>
			</g>
			<linearGradient id="SVGID_8_" gradientUnits="userSpaceOnUse" x1="484.1087" y1="232.6355" x2="746.4008" y2="232.6355">
				<stop  offset="0" style="stop-color:#6E191C"/>
				<stop  offset="0.9961" style="stop-color:#7F1F1D"/>
			</linearGradient>
			<path class="st12" d="M695.9,221.4c24.7-15.2,29.9-40.9,32.1-55.2c5.6-102.8-95.4-98.5-95.4-98.5H484.1l80.2,63.6
				c0,0,43.6,0,59.2,0c19.1,1.4,25.6,10.7,29.5,21.6c6.5,40.5-33,37.6-33,37.6h-12.5c-5.7-3.4-12.3-5.5-19.4-5.5
				c-1.8,0-3.6,0.2-5.4,0.4c-10.4,0.8-19.6,6.8-25.4,15.5c-4.5,6.3-7.2,14-7.2,22.4c0,9.9,3.8,19,9.9,25.8
				c4.9,5.7,11.3,9.8,18.6,11.3c3,0.8,6.1,1.2,9.4,1.2c7.1,0,13.8-2,19.5-5.5c8,0,16.7,0,23.3,0c36,2.9,40.8,22.8,40.8,38.1
				c-2.6,46.6-43.4,42.4-65.5,42.8c-29.9,0-34-18.2-42.7-36.3c3.7,67.5,50.5,92.4,84.5,97c68.9,0,72.3-25.5,78.4-33.1
				C783.1,273.7,702,226.1,695.9,221.4z"/>
		</g>
	</g>
</g>
</svg>
